<?xml version="1.0" standalone="no"?>
<!DOCTYPE svg PUBLIC "-//W3C//DTD SVG 20010904//EN"
 "http://www.w3.org/TR/2001/REC-SVG-20010904/DTD/svg10.dtd">
<svg version="1.0" xmlns="http://www.w3.org/2000/svg"
 width="500.000000pt" height="500.000000pt" viewBox="0 0 500.000000 500.000000"
 preserveAspectRatio="xMidYMid meet">

<g transform="translate(0.000000,500.000000) scale(0.100000,-0.100000)"
fill="#000000" stroke="none">
<path d="M674 4659 c-3 -6 -15 -9 -25 -6 -12 3 -17 1 -12 -6 4 -6 0 -8 -10 -4
-13 5 -16 1 -14 -16 2 -23 -24 -32 -29 -9 -1 7 0 8 3 2 2 -5 9 -10 15 -10 6 0
6 6 -2 15 -7 8 -17 12 -24 8 -6 -4 -17 -8 -23 -9 -7 -1 -24 -12 -39 -23 -15
-12 -34 -21 -43 -21 -9 0 -40 -22 -69 -48 -29 -27 -55 -46 -59 -43 -3 3 -3 0
1 -6 4 -7 3 -13 -3 -13 -6 0 -17 -12 -25 -27 -8 -16 -15 -24 -16 -19 0 8 -18
-16 -64 -88 -10 -16 -13 -25 -7 -22 7 5 9 1 5 -8 -3 -9 -11 -13 -18 -9 -6 4
-5 -1 2 -10 8 -9 11 -21 8 -26 -4 -5 -2 -12 4 -16 6 -4 7 -12 1 -24 -6 -10 -6
-23 0 -32 5 -7 8 -25 8 -39 -1 -21 -3 -20 -12 10 -6 19 -18 40 -26 46 -18 14
-6 35 17 28 14 -5 14 -3 -2 10 -11 9 -14 16 -8 16 7 0 12 5 12 12 0 9 -3 9
-12 0 -7 -7 -13 -16 -14 -20 0 -4 -6 -20 -12 -35 -7 -16 -12 -36 -11 -45 1
-11 4 -7 9 8 l8 25 1 -27 c1 -14 -4 -28 -11 -30 -14 -5 -25 -98 -18 -159 3
-25 13 -54 23 -63 12 -12 16 -28 13 -52 -4 -26 0 -36 15 -44 13 -7 19 -7 19 0
0 5 -6 10 -12 10 -9 0 -8 4 2 10 13 8 12 10 -2 10 -10 0 -18 5 -18 11 0 5 4 8
9 4 5 -3 12 7 14 22 l4 28 3 -30 c6 -76 6 -80 -15 -78 l-20 2 20 -15 c11 -8
20 -20 21 -27 0 -7 7 -25 14 -40 11 -23 18 -27 39 -22 24 6 24 5 8 -7 -18 -13
-17 -15 10 -45 21 -23 36 -30 61 -28 26 1 30 -1 20 -12 -9 -11 -13 -11 -19 -1
-7 10 -11 10 -21 -1 -11 -11 -11 -13 1 -6 11 6 13 4 8 -9 -4 -9 -3 -15 2 -12
5 3 19 -4 33 -17 13 -12 28 -24 33 -25 6 -2 9 -7 8 -11 -1 -4 7 -12 17 -19 15
-9 22 -9 34 3 19 20 21 19 51 -10 26 -27 33 -41 13 -29 -6 4 -8 3 -4 -4 3 -6
22 -9 41 -8 19 2 32 -1 29 -6 -3 -5 -13 -7 -21 -4 -8 3 -11 1 -8 -4 3 -5 20
-7 37 -3 22 4 29 3 24 -5 -5 -8 -2 -10 8 -6 9 3 16 2 16 -4 0 -5 14 -8 32 -6
18 2 36 -1 41 -8 5 -9 10 -9 13 -2 4 9 92 9 137 -1 13 -2 17 1 13 11 -3 7 -1
13 4 11 5 -1 16 7 25 18 16 19 16 19 1 -7 l-16 -27 38 6 c41 6 65 21 56 34 -3
5 6 5 20 -1 19 -7 26 -6 26 2 0 6 3 9 6 5 13 -13 114 49 114 69 0 5 -5 3 -12
-4 -7 -7 -21 -11 -32 -11 -18 1 -18 2 -3 6 9 2 15 8 13 12 -7 10 26 7 43 -4
10 -6 12 -4 7 4 -5 8 -3 12 5 10 27 -3 39 1 36 14 -1 6 4 11 10 10 7 -2 12 3
10 10 -1 6 4 11 11 10 6 -2 12 2 12 7 0 13 -27 13 -35 0 -3 -5 -11 -10 -17
-10 -6 0 -5 6 3 16 8 10 23 14 41 12 27 -4 42 4 50 27 1 6 7 9 11 7 5 -1 6 2
3 7 -4 5 2 14 11 20 16 9 16 10 1 11 -9 0 -19 4 -22 9 -3 4 5 6 19 4 23 -5 24
-3 21 40 -3 42 -2 45 20 41 12 -2 26 1 30 7 4 8 3 9 -4 5 -20 -12 -14 32 7 46
17 12 21 20 36 78 5 19 4 21 -4 10 -8 -12 -10 -10 -8 8 1 12 6 21 12 19 6 -3
11 28 12 84 1 68 -2 89 -13 93 -11 4 -12 10 -5 25 6 10 7 22 3 26 -4 3 -7 10
-7 13 -2 22 -28 82 -36 82 -6 0 -7 5 -4 10 3 6 0 10 -7 10 -10 0 -9 3 2 11 11
8 8 9 -15 5 l-30 -6 25 16 c24 14 24 15 3 11 -20 -4 -21 -2 -12 14 8 16 6 19
-10 19 -23 0 -37 16 -19 23 16 6 -25 48 -50 51 -11 2 -17 12 -17 27 0 20 -4
24 -27 21 -20 -2 -28 2 -28 12 0 10 6 13 18 9 9 -3 14 -3 11 1 -3 3 -26 13
-50 21 -27 9 -33 13 -14 10 l30 -5 -25 14 c-19 11 -28 12 -39 3 -12 -10 -13
-9 -8 7 6 14 4 17 -8 12 -9 -3 -14 -2 -11 3 6 9 -18 34 -25 26 -3 -2 -19 -6
-37 -10 -25 -4 -30 -2 -26 10 5 12 9 13 20 4 9 -7 14 -8 14 -1 0 14 -34 25
-38 13 -2 -6 -8 -11 -13 -11 -6 0 -8 4 -5 9 3 5 -1 12 -10 15 -25 9 -25 8 -9
-18 15 -23 15 -23 -11 -18 -16 3 -21 7 -14 12 9 5 9 9 1 14 -6 4 -8 12 -5 18
4 5 -5 3 -19 -7 -20 -13 -30 -14 -46 -5 -12 6 -21 15 -21 20 0 17 -156 12
-174 -5 -8 -8 -17 -15 -20 -15 -3 0 -3 7 0 15 7 17 -2 20 -12 4z m43 -44 c-4
-8 -11 -15 -17 -15 -6 0 -6 7 2 20 14 22 24 19 15 -5z m-44 8 c-7 -2 -21 -2
-30 0 -10 3 -4 5 12 5 17 0 24 -2 18 -5z m-109 -11 c3 -5 -1 -9 -9 -9 -8 0
-12 4 -9 9 3 4 7 8 9 8 2 0 6 -4 9 -8z m103 -8 c-3 -3 -12 -4 -19 -1 -8 3 -5
6 6 6 11 1 17 -2 13 -5z m-210 -46 c-2 -7 3 -18 10 -23 11 -8 6 -11 -22 -12
l-36 -1 23 23 c27 27 31 29 25 13z m694 -21 c-1 -12 -15 -9 -19 4 -3 6 1 10 8
8 6 -3 11 -8 11 -12z m-754 -36 c0 -11 -5 -17 -9 -15 -4 3 -8 1 -8 -5 0 -5 3
-11 8 -14 4 -2 2 -2 -5 -1 -17 4 -26 -13 -11 -19 7 -2 1 -4 -14 -3 -24 1 -25
2 -10 17 9 9 24 26 32 38 18 26 19 26 17 2z m840 -57 c-3 -3 -12 -4 -19 -1 -8
3 -5 6 6 6 11 1 17 -2 13 -5z m-918 -79 c0 -5 -6 -1 -14 9 -8 11 -15 24 -15
30 0 5 7 1 15 -10 8 -10 14 -23 14 -29z m981 15 c0 -5 -4 -10 -10 -10 -5 0
-10 5 -10 10 0 6 5 10 10 10 6 0 10 -4 10 -10z m85 -81 c11 -16 1 -19 -13 -3
-7 8 -8 14 -3 14 5 0 13 -5 16 -11z m-1175 -169 c0 -5 -4 -10 -10 -10 -5 0
-10 5 -10 10 0 6 5 10 10 10 6 0 10 -4 10 -10z m1157 -302 c-3 -8 -6 -5 -6 6
-1 11 2 17 5 13 3 -3 4 -12 1 -19z m-69 -122 c-7 -8 -15 -12 -17 -11 -5 6 10
25 20 25 5 0 4 -6 -3 -14z m-978 -41 c0 -5 -5 -3 -10 5 -5 8 -10 20 -10 25 0
6 5 3 10 -5 5 -8 10 -19 10 -25z m1000 25 c0 -5 -5 -10 -11 -10 -5 0 -7 5 -4
10 3 6 8 10 11 10 2 0 4 -4 4 -10z m-23 -52 c-3 -7 -5 -2 -5 12 0 14 2 19 5
13 2 -7 2 -19 0 -25z m-897 -38 c0 -5 -5 -10 -11 -10 -5 0 -7 5 -4 10 3 6 8
10 11 10 2 0 4 -4 4 -10z m818 -31 c-3 -8 -7 -3 -11 10 -4 17 -3 21 5 13 5 -5
8 -16 6 -23z m-742 -24 c9 8 20 15 26 15 6 0 0 -9 -13 -19 -26 -21 -40 -19
-38 7 1 15 2 15 6 0 4 -16 6 -16 19 -3z m80 -11 c-1 -22 -1 -22 -18 -4 -23 24
-23 29 1 27 13 -1 18 -8 17 -23z m131 -70 c0 -9 -8 -9 -29 -2 -35 13 -35 15 0
14 16 -1 29 -6 29 -12z m80 4 c-10 -5 -15 -13 -12 -19 7 -11 -3 -11 -30 1 -18
8 -18 9 -2 9 10 1 16 4 14 9 -3 4 7 8 21 9 22 1 23 0 9 -9z m143 2 c8 -5 11
-10 5 -10 -5 0 -17 5 -25 10 -8 5 -10 10 -5 10 6 0 17 -5 25 -10z m88 -8 c2
-7 -6 -11 -22 -10 -19 2 -22 5 -14 15 12 15 30 13 36 -5z m-204 -7 c-7 -16
-24 -21 -24 -6 0 8 7 13 27 20 1 1 0 -6 -3 -14z"/>
<path d="M895 4660 c3 -5 15 -10 26 -10 10 0 19 5 19 10 0 6 -12 10 -26 10
-14 0 -23 -4 -19 -10z"/>
<path d="M4038 4665 c-3 -3 -20 -7 -36 -7 -35 -1 -55 -38 -21 -38 10 0 19 -4
19 -9 0 -11 -19 -9 -38 3 -8 4 -10 16 -6 28 5 16 3 18 -7 12 -8 -5 -21 -7 -29
-6 -8 1 -21 -7 -28 -18 -7 -12 -8 -20 -2 -20 5 0 10 5 10 11 0 5 5 7 12 3 7
-4 8 -3 4 4 -11 18 -2 14 15 -6 15 -18 14 -19 -27 -18 -29 0 -40 4 -34 10 13
13 13 26 -1 26 -5 0 -7 -5 -3 -11 5 -8 -1 -10 -19 -7 -18 4 -24 1 -20 -9 3 -7
1 -13 -5 -13 -6 0 -12 5 -14 12 -3 8 -13 6 -31 -8 -14 -10 -24 -25 -22 -31 2
-7 1 -12 -3 -11 -4 1 -17 -2 -30 -6 -17 -6 -20 -11 -13 -20 8 -9 7 -13 -4 -13
-8 0 -12 3 -10 7 2 3 0 12 -6 20 -6 11 -9 12 -9 2 0 -7 -3 -11 -7 -9 -5 3 -14
-1 -21 -9 -7 -8 -9 -14 -5 -14 4 -1 -5 -7 -22 -15 -25 -12 -26 -14 -5 -9 17 4
22 3 15 -4 -5 -6 -17 -12 -25 -14 -18 -4 -40 -23 -40 -36 0 -5 -7 -15 -15 -22
-8 -7 -15 -17 -15 -23 0 -5 9 -2 20 8 11 10 22 16 25 13 3 -3 -11 -18 -31 -33
l-36 -28 7 24 c5 19 4 21 -4 9 -6 -8 -11 -24 -12 -35 0 -12 -3 -15 -6 -7 -3 9
-10 4 -19 -13 -18 -34 -18 -58 0 -27 11 21 14 21 25 8 18 -21 6 -34 -28 -30
-21 2 -30 -2 -34 -14 -3 -9 -12 -34 -21 -54 -9 -21 -14 -38 -11 -38 3 0 10 10
15 23 8 19 9 18 7 -11 -1 -21 -9 -39 -21 -48 -11 -8 -15 -14 -8 -14 7 0 10 -4
7 -10 -3 -5 -1 -10 5 -10 7 0 9 7 5 18 -5 13 -3 14 6 5 13 -13 4 -33 -17 -33
-17 0 -18 -9 -3 -30 9 -13 10 -12 5 3 -3 9 -1 17 4 17 6 0 11 -8 11 -17 5 -65
4 -91 -2 -87 -4 2 -9 1 -12 -3 -2 -5 -2 -2 -1 5 2 6 -1 12 -7 12 -11 0 -8 -38
5 -58 4 -7 5 -16 2 -19 -3 -3 -2 -11 3 -17 5 -6 11 -24 14 -41 5 -34 28 -87
40 -96 5 -3 7 -10 5 -15 -1 -5 6 -10 17 -12 18 -4 18 -2 -4 22 -14 14 -23 27
-20 27 2 1 14 3 27 4 17 2 20 -1 11 -11 -6 -7 -7 -19 -3 -26 12 -18 11 -57 -1
-50 -14 8 62 -79 94 -106 61 -54 124 -102 133 -102 6 0 -5 13 -25 28 l-36 29
42 -2 c54 -3 53 -3 39 -17 -8 -8 -15 -8 -27 2 -10 8 -15 9 -15 2 0 -6 11 -17
24 -24 14 -7 24 -17 23 -22 -2 -12 53 -27 66 -19 6 3 7 1 3 -5 -9 -14 38 -35
72 -33 13 0 21 -2 19 -7 -3 -4 15 -6 39 -5 24 1 44 -2 44 -8 0 -5 34 -9 76 -9
61 0 80 4 91 18 8 9 12 13 10 7 -3 -5 5 -10 18 -10 16 0 21 4 17 15 -5 13 -3
13 10 2 13 -10 18 -10 24 -1 4 8 3 9 -4 5 -7 -4 -12 -3 -12 2 0 5 -9 12 -21
15 -15 4 -19 2 -15 -9 7 -19 4 -18 -15 4 -14 17 -11 18 57 17 40 0 70 -3 68
-7 -2 -4 -13 -5 -23 -3 -10 2 -18 -3 -18 -10 0 -7 5 -11 11 -10 38 10 56 19
56 27 0 5 3 7 8 5 4 -2 21 3 37 13 22 12 30 24 29 43 -1 19 3 25 17 24 22 -2
26 -17 4 -17 -18 0 -20 -16 -3 -26 7 -5 8 -3 4 5 -6 8 -2 11 10 9 11 -2 19 3
19 12 1 8 6 14 13 13 7 -2 12 6 12 18 0 11 5 17 10 14 6 -4 7 -12 3 -18 -4 -7
8 3 26 21 18 17 37 32 42 32 5 0 8 3 8 8 -3 19 2 33 10 27 5 -3 13 0 17 6 5 8
3 9 -6 4 -8 -5 -11 -3 -8 6 3 8 11 13 17 11 7 -1 10 1 7 6 -3 5 5 19 17 33 12
13 22 31 22 39 -1 8 9 27 21 42 17 22 21 36 17 75 -4 43 -3 46 10 30 13 -15
15 -12 21 35 8 68 8 133 0 192 -6 37 -9 44 -20 35 -11 -9 -14 -7 -14 8 0 10
-5 24 -11 30 -8 8 -8 17 0 31 16 30 14 39 -4 16 -16 -21 -20 -8 -5 16 6 10 4
22 -6 37 -8 13 -11 23 -7 23 5 0 0 5 -10 11 -9 6 -14 15 -11 21 4 7 2 8 -4 4
-7 -4 -13 -2 -13 3 -3 22 -5 27 -21 49 -11 17 -17 20 -21 10 -3 -8 -6 -5 -6 7
-1 11 -13 31 -28 45 -21 19 -25 21 -20 7 4 -10 7 -23 7 -28 0 -6 4 -8 9 -4 5
3 12 2 15 -3 2 -4 -10 -8 -27 -8 -29 0 -33 4 -34 29 0 21 2 25 8 16 7 -11 9
-11 9 2 0 17 -30 49 -47 49 -6 0 -13 7 -17 15 -3 8 -11 15 -17 15 -8 0 -8 -4
-1 -13 7 -8 7 -18 2 -27 -6 -8 -10 -10 -11 -5 -1 6 -3 15 -4 20 -2 6 -3 15 -4
21 0 7 -12 15 -26 18 -14 4 -25 11 -25 17 0 6 -4 7 -10 4 -5 -3 -20 1 -32 9
-31 20 -81 29 -72 13 4 -7 3 -9 -1 -4 -5 4 -19 0 -31 -8 -21 -13 -23 -13 -18
0 4 8 1 15 -5 15 -6 0 -8 6 -5 13 3 10 -5 14 -28 15 -18 1 -49 5 -68 8 -19 3
-38 3 -42 -1z m98 -30 c-36 -19 -47 -19 -22 0 11 8 27 15 35 15 9 0 3 -7 -13
-15z m135 -19 c5 3 9 1 9 -5 0 -5 -9 -9 -19 -8 -12 1 -17 6 -13 16 4 10 7 11
10 3 2 -7 8 -10 13 -6z m-104 -2 c-3 -3 -12 -4 -19 -1 -8 3 -5 6 6 6 11 1 17
-2 13 -5z m-418 -77 c8 -10 7 -14 -4 -14 -8 0 -12 4 -9 8 2 4 -2 10 -8 12 -8
4 -9 6 -2 6 6 1 17 -5 23 -12z m-72 -46 c-1 -18 -7 -27 -14 -24 -7 3 -13 1
-13 -5 0 -6 6 -13 13 -16 6 -3 0 -3 -16 1 -15 3 -33 0 -40 -6 -10 -8 -14 -7
-14 4 0 8 8 15 18 15 23 0 61 40 54 58 -2 7 -1 10 5 7 5 -3 8 -18 7 -34z m919
-104 c1 -9 -3 -20 -8 -24 -7 -3 -8 -1 -4 5 4 7 3 12 -3 12 -5 0 -12 -6 -15
-12 -4 -10 -2 19 3 40 3 11 25 -7 27 -21z m-1002 -11 c-3 -9 -10 -13 -15 -10
-5 3 -3 11 4 19 15 16 19 13 11 -9z m1059 -81 c4 -8 3 -16 -1 -19 -4 -3 -9 4
-9 15 -2 23 3 25 10 4z m-6 -117 c-3 -8 -6 -5 -6 6 -1 11 2 17 5 13 3 -3 4
-12 1 -19z m-1210 -228 c1 -16 -1 -17 -12 -7 -11 10 -8 19 10 27 1 0 1 -9 2
-20z m1210 -62 c-3 -8 -6 -5 -6 6 -1 11 2 17 5 13 3 -3 4 -12 1 -19z m20 -49
c-5 -4 -7 -11 -3 -17 3 -6 2 -13 -4 -17 -5 -3 -10 3 -10 14 0 10 -3 28 -6 38
-5 15 -4 15 5 3 9 -13 11 -12 12 5 l0 20 8 -20 c5 -11 4 -23 -2 -26z m-81
-128 c20 17 17 5 -4 -14 -17 -15 -18 -15 -19 6 0 12 1 16 4 9 4 -10 8 -10 19
-1z m-986 -77 c0 -8 -19 -13 -24 -6 -3 5 1 9 9 9 8 0 15 -2 15 -3z m915 -4
c-3 -5 1 -10 10 -10 9 0 13 5 10 10 -3 6 -1 10 4 10 14 0 14 -17 1 -25 -15 -9
-43 3 -35 15 3 5 8 10 11 10 3 0 2 -4 -1 -10z m-15 -25 c11 -13 10 -14 -4 -9
-9 3 -16 10 -16 15 0 13 6 11 20 -6z m-620 -145 c8 -15 8 -18 -3 -14 -8 3 -14
11 -14 19 0 20 4 19 17 -5z m30 10 c-13 -8 -12 -10 4 -10 11 0 17 -3 13 -6 -3
-4 -13 -4 -22 0 -18 6 -11 26 8 26 7 0 6 -4 -3 -10z m75 -20 c3 -5 2 -10 -4
-10 -5 0 -13 5 -16 10 -3 6 -2 10 4 10 5 0 13 -4 16 -10z"/>
<path d="M4195 4640 c3 -5 10 -10 16 -10 5 0 9 5 9 10 0 6 -7 10 -16 10 -8 0
-12 -4 -9 -10z"/>
<path d="M3714 4574 c-18 -14 -18 -15 4 -4 12 6 22 13 22 15 0 8 -5 6 -26 -11z"/>
<path d="M4495 4460 c3 -5 8 -10 11 -10 2 0 4 5 4 10 0 6 -5 10 -11 10 -5 0
-7 -4 -4 -10z"/>
<path d="M200 4220 c0 -5 5 -10 11 -10 5 0 7 5 4 10 -3 6 -8 10 -11 10 -2 0
-4 -4 -4 -10z"/>
<path d="M4670 4221 c0 -5 7 -11 14 -14 10 -4 13 -1 9 9 -6 15 -23 19 -23 5z"/>
<path d="M3398 4048 c5 -5 16 -8 23 -6 8 3 3 7 -10 11 -17 4 -21 3 -13 -5z"/>
<path d="M3400 4022 c0 -5 7 -9 15 -9 8 0 15 4 15 9 0 4 -7 8 -15 8 -8 0 -15
-4 -15 -8z"/>
<path d="M1375 3769 c-4 -12 -2 -26 5 -33 10 -8 11 -8 6 1 -3 6 0 14 6 16 9 4
8 6 -2 6 -12 1 -13 3 -1 10 8 5 9 11 3 15 -6 3 -14 -3 -17 -15z"/>
<path d="M494 3509 c-4 -8 -3 -9 4 -5 7 4 12 2 12 -3 0 -6 5 -11 11 -11 13 0
7 22 -8 27 -6 2 -15 -1 -19 -8z"/>
<path d="M3578 3223 c12 -2 32 -2 45 0 12 2 2 4 -23 4 -25 0 -35 -2 -22 -4z"/>
<path d="M3668 3223 c7 -3 16 -2 19 1 4 3 -2 6 -13 5 -11 0 -14 -3 -6 -6z"/>
<path d="M303 3213 c14 -8 -4 -22 -21 -17 -10 4 -13 2 -7 -3 7 -5 8 -181 4
-513 -11 -869 -10 -2378 1 -2385 7 -4 11 481 13 1437 l2 1443 3 -1445 2 -1445
523 2 522 2 3 1440 2 1441 -517 2 c-337 2 -518 6 -518 13 0 6 183 12 520 15
l520 5 -517 3 c-284 1 -522 4 -530 5 -7 2 -10 2 -5 0z"/>
<path d="M3567 3200 c-7 -20 -7 101 -8 -1450 0 -980 3 -1396 10 -1398 8 -3 11
413 11 1409 0 777 2 1410 5 1407 3 -2 5 -639 5 -1414 l0 -1409 -22 -7 c-13 -3
-18 -7 -13 -8 6 -1 254 -2 551 -3 l541 -2 -2 130 c-1 72 -2 714 -3 1427 l-2
1298 -522 3 -523 2 523 3 c340 1 522 5 522 12 0 7 -182 10 -525 10 -493 0
-525 -1 -526 -17 0 -15 -2 -15 -9 2 -6 16 -9 17 -13 5z"/>
<path d="M578 3183 c145 -2 379 -2 520 0 141 1 23 2 -263 2 -286 0 -402 -1
-257 -2z"/>
</g>
</svg>
